<?xml version="1.0" encoding="UTF-8"?>
<svg id="Ebene_1" data-name="Ebene 1" xmlns="http://www.w3.org/2000/svg" viewBox="0 0 197.44 33.15">
  <defs>
    <style>
      .cls-1 {
        fill: #fff;
      }
    </style>
  </defs>
  <path class="cls-1" d="M11.39,31.24H0V.42h11.38c3.14,0,5.85.61,8.12,1.84s4.03,2.99,5.26,5.29c1.23,2.3,1.85,5.05,1.85,8.26s-.61,5.97-1.84,8.27c-1.23,2.3-2.98,4.07-5.26,5.3-2.28,1.23-4.98,1.85-8.11,1.85ZM7.45,24.89h3.66c2.6,0,4.59-.68,5.97-2.04,1.38-1.36,2.07-3.7,2.07-7.04s-.69-5.66-2.08-7.01c-1.39-1.35-3.41-2.03-6.06-2.03h-3.55v18.12Z"/>
  <path class="cls-1" d="M31.29.42h6.96c.69,0,1.31.42,1.57,1.06l7.39,18.03h.36L54.97,1.48c.26-.64.88-1.06,1.57-1.06h6.95c.63,0,1.13.51,1.13,1.13l1,29.68h-7.25l-1-18.93h-.26l-7.4,18.74h-4.63l-7.4-18.84h-.26l-1,19.04h-7.25l1-29.7c0-.62.5-1.12,1.12-1.12Z"/>
  <g>
    <path class="cls-1" d="M168.69,21.34c-.05-.54-.29-.97-.69-1.27-.41-.3-.96-.45-1.65-.45s-1.26.15-1.64.44c-.38.29-.57.66-.57,1.11,0,.5.2.87.63,1.12.43.25.95.45,1.54.59l1.24.3c.8.18,1.5.44,2.12.78s1.11.78,1.46,1.32c.36.54.53,1.19.53,1.96,0,1.26-.48,2.27-1.41,3.02s-2.25,1.12-3.92,1.12-3-.38-3.99-1.15c-.99-.76-1.51-1.89-1.54-3.39h2.81c.05.69.32,1.21.82,1.56.49.35,1.12.52,1.88.52s1.33-.16,1.77-.47c.44-.32.66-.72.67-1.23,0-.47-.21-.83-.61-1.08s-.98-.47-1.72-.65l-1.5-.38c-1.16-.28-2.07-.72-2.75-1.33-.67-.61-1-1.42-1-2.44,0-.84.22-1.57.67-2.2.45-.63,1.07-1.12,1.86-1.46s1.68-.52,2.68-.52,1.91.18,2.67.53c.76.35,1.36.84,1.78,1.46.42.62.64,1.35.66,2.17h-2.79Z"/>
    <path class="cls-1" d="M173.61,31.18v-13.82h9.26v2.41h-6.36v3.29h5.88v2.41h-5.88v3.3h6.38v2.41h-9.29Z"/>
    <path class="cls-1" d="M197.44,24.27c0,1.51-.28,2.79-.85,3.85-.57,1.06-1.33,1.86-2.31,2.42s-2.07.83-3.28.83-2.32-.28-3.29-.84c-.97-.56-1.74-1.37-2.3-2.43s-.85-2.34-.85-3.84.28-2.79.85-3.85c.56-1.06,1.33-1.86,2.3-2.42.97-.56,2.07-.83,3.29-.83s2.31.28,3.28.83,1.74,1.36,2.31,2.42c.57,1.06.85,2.34.85,3.85ZM194.49,24.27c0-1.47-.32-2.58-.95-3.36-.64-.77-1.48-1.16-2.54-1.16s-1.9.39-2.54,1.16-.95,1.89-.95,3.36.32,2.58.95,3.35,1.48,1.16,2.54,1.16,1.9-.39,2.54-1.16c.63-.77.95-1.89.95-3.35Z"/>
  </g>
  <path class="cls-1" d="M104.36,16.61l-4.43,16.54h-2.46l4.43-16.54h2.46Z"/>
  <path class="cls-1" d="M105.93,31.21h-3.15l4.8-13.97h3.79l4.79,13.97h-3.15l-1.03-3.19h-5.02l-1.03,3.19ZM107.71,25.72h3.53l-1.71-5.29h-.11l-1.71,5.29Z"/>
  <path class="cls-1" d="M124.46,26.75v-6.02h2.89v10.48h-2.78v-1.9h-.11c-.24.61-.63,1.11-1.17,1.48-.55.37-1.21.56-1.99.56-1.05,0-1.9-.35-2.55-1.05-.65-.7-.98-1.67-.98-2.89v-6.67h2.89v6.15c0,.62.17,1.11.5,1.47s.76.54,1.31.54.98-.18,1.39-.55c.4-.36.61-.9.6-1.6Z"/>
  <path class="cls-1" d="M133.5,31.38c-.79,0-1.51-.21-2.14-.62-.64-.41-1.15-1.02-1.52-1.82s-.56-1.79-.56-2.96.19-2.2.58-3c.39-.8.9-1.4,1.54-1.79.64-.4,1.34-.6,2.1-.6.58,0,1.07.1,1.46.3.39.2.71.44.95.73s.43.58.55.87h.09v-5.25h2.88v13.97h-2.85v-1.68h-.12c-.13.29-.32.58-.57.86-.25.28-.57.52-.96.71-.39.19-.87.28-1.43.28ZM134.42,29.07c.7,0,1.24-.28,1.62-.85.38-.57.57-1.32.57-2.25s-.19-1.68-.57-2.23-.92-.83-1.62-.83-1.26.28-1.63.85c-.37.57-.56,1.3-.56,2.21s.19,1.66.56,2.23c.38.57.92.86,1.63.86Z"/>
  <path class="cls-1" d="M143.26,19.38c-.43,0-.79-.15-1.1-.43-.31-.29-.46-.64-.46-1.04s.15-.75.46-1.04c.31-.29.67-.43,1.1-.43s.8.14,1.11.43c.31.29.46.63.46,1.04s-.15.75-.46,1.04c-.31.29-.68.43-1.11.43ZM141.8,31.21v-10.48h2.89v10.48h-2.89Z"/>
  <path class="cls-1" d="M152.55,20.73v2.18h-1.96v5.08c0,.4.09.67.27.81s.42.21.71.21c.14,0,.27-.01.41-.04.14-.02.24-.04.31-.06l.46,2.16c-.15.05-.35.1-.61.16-.26.06-.58.1-.96.11-1.05.05-1.89-.18-2.53-.69s-.95-1.27-.95-2.3v-5.46h-1.43v-2.18h1.43v-2.51h2.89v2.51h1.96Z"/>
  <path class="cls-1" d="M160.63,16.61l-4.43,16.54h-2.46l4.43-16.54h2.46Z"/>
  <path class="cls-1" d="M79.76,31.63c7.37,0,12.28-3.99,12.28-9.83,0-1.84-.61-3.69-1.54-4.91-.92-1.54-2.46-2.46-4.3-3.07l-5.83-2.15c-2.15-.92-3.07-1.84-3.07-3.38s1.54-2.76,3.69-2.76c2.46,0,4.7.26,7.06,1.54,1.08.58,1.54-.31,1.54-.31l1.61-4.43s-.38-.18-1-.48c-2.76-1.23-6.14-1.84-9.21-1.84-6.76,0-11.36,3.69-11.36,8.91,0,1.84.61,3.69,1.84,5.22,1.23,1.54,4.61,3.07,4.61,3.07l4.91,1.84c2.76.92,3.69,2.15,3.69,3.69,0,2.15-1.84,3.38-4.91,3.38-2.76,0-5.22-.92-7.68-1.84-.61-.31-1.23,0-1.54.61l-1.52,4.15s-.1-.05.91.46c3.36,1.68,6.45,2.15,9.83,2.15h0Z"/>
</svg>