<?xml version="1.0" encoding="UTF-8"?>
<svg id="Ebene_1" data-name="Ebene 1" xmlns="http://www.w3.org/2000/svg" viewBox="0 0 141.98 31.63">
  <defs>
    <style>
      .cls-1 {
        fill: #fff;
      }
    </style>
  </defs>
  <path class="cls-1" d="M11.39,31.24H0V.42h11.38c3.14,0,5.85.61,8.12,1.84s4.03,2.99,5.26,5.29c1.23,2.3,1.85,5.05,1.85,8.26s-.61,5.97-1.84,8.27c-1.23,2.3-2.98,4.07-5.26,5.3-2.28,1.23-4.98,1.85-8.11,1.85ZM7.45,24.89h3.66c2.6,0,4.59-.68,5.97-2.04,1.38-1.36,2.07-3.7,2.07-7.04s-.69-5.66-2.08-7.01c-1.39-1.35-3.41-2.03-6.06-2.03h-3.55v18.12Z"/>
  <path class="cls-1" d="M31.29.42h6.96c.69,0,1.31.42,1.57,1.06l7.39,18.03h.36L54.97,1.48c.26-.64.88-1.06,1.57-1.06h6.95c.63,0,1.13.51,1.13,1.13l1,29.68h-7.25l-1-18.93h-.26l-7.4,18.74h-4.63l-7.4-18.84h-.26l-1,19.04h-7.25l1-29.7c0-.62.5-1.12,1.12-1.12Z"/>
  <g>
    <path class="cls-1" d="M107.71,14.2V.38h9.26v2.41h-6.36v3.29h5.88v2.41h-5.88v3.3h6.38v2.41h-9.29Z"/>
    <path class="cls-1" d="M131.92,7.29c0,1.51-.28,2.79-.85,3.85-.57,1.06-1.33,1.86-2.31,2.42s-2.07.83-3.28.83-2.32-.28-3.29-.84c-.97-.56-1.74-1.37-2.3-2.43s-.85-2.34-.85-3.84.28-2.79.85-3.85c.56-1.06,1.33-1.86,2.3-2.42.97-.56,2.07-.83,3.29-.83s2.31.28,3.28.83,1.74,1.36,2.31,2.42c.57,1.06.85,2.34.85,3.85ZM128.97,7.29c0-1.47-.32-2.58-.95-3.36-.64-.77-1.48-1.16-2.54-1.16s-1.9.39-2.54,1.16-.95,1.89-.95,3.36.32,2.58.95,3.35,1.48,1.16,2.54,1.16,1.9-.39,2.54-1.16c.63-.77.95-1.89.95-3.35Z"/>
    <path class="cls-1" d="M140.23,6.1v2.28h-6.27v-2.28h6.27Z"/>
    <path class="cls-1" d="M96.7,31.2h-3.11l4.75-13.82h3.75l4.74,13.82h-3.11l-1.02-3.15h-4.96l-1.02,3.15ZM98.46,25.77h3.49l-1.69-5.23h-.11l-1.69,5.23Z"/>
    <path class="cls-1" d="M114.25,26.79v-5.95h2.86v10.36h-2.75v-1.88h-.11c-.23.61-.62,1.1-1.16,1.46-.54.37-1.2.55-1.97.55-1.04,0-1.88-.35-2.52-1.04-.64-.7-.97-1.65-.97-2.86v-6.6h2.86v6.09c0,.61.17,1.09.49,1.45s.75.53,1.29.53.97-.18,1.37-.54c.4-.36.6-.89.59-1.58Z"/>
    <path class="cls-1" d="M122.96,31.37c-.78,0-1.49-.2-2.12-.61-.63-.41-1.13-1.01-1.5-1.8s-.56-1.77-.56-2.92.19-2.18.57-2.97c.38-.79.89-1.38,1.52-1.77.63-.39,1.33-.59,2.08-.59.58,0,1.06.1,1.45.29.39.2.7.44.94.73s.42.57.55.86h.09v-5.2h2.85v13.82h-2.82v-1.66h-.12c-.13.29-.32.57-.56.85-.25.28-.56.51-.95.7-.39.18-.86.28-1.41.28ZM123.87,29.08c.69,0,1.22-.28,1.6-.84.38-.56.57-1.3.57-2.22s-.19-1.66-.56-2.21-.91-.82-1.6-.82-1.25.28-1.61.84c-.37.56-.55,1.29-.55,2.19s.19,1.64.56,2.21c.37.57.91.85,1.61.85Z"/>
    <path class="cls-1" d="M132.32,19.5c-.42,0-.78-.14-1.09-.43-.3-.29-.46-.63-.46-1.03s.15-.74.46-1.03c.3-.28.67-.42,1.09-.42s.79.14,1.09.42c.3.28.46.62.46,1.03s-.15.74-.46,1.03c-.3.29-.67.43-1.09.43ZM130.89,31.2v-10.36h2.86v10.36h-2.86Z"/>
    <path class="cls-1" d="M141.8,20.84v2.16h-1.94v5.02c0,.4.09.66.27.8s.41.21.7.21c.13,0,.27-.01.4-.04.13-.02.24-.04.31-.06l.45,2.14c-.14.04-.34.1-.6.16-.26.06-.57.1-.95.11-1.04.04-1.87-.18-2.5-.68s-.94-1.25-.94-2.27v-5.4h-1.41v-2.16h1.41v-2.48h2.86v2.48h1.94Z"/>
  </g>
  <path class="cls-1" d="M100.05,14.4c3.31,0,5.52-1.79,5.52-4.41,0-.83-.28-1.65-.69-2.21-.41-.69-1.1-1.1-1.93-1.38l-2.62-.97c-.97-.41-1.38-.83-1.38-1.52s.69-1.24,1.65-1.24c1.1,0,2.11.12,3.17.69.48.26.69-.14.69-.14l.72-1.99s-.17-.08-.45-.22c-1.24-.55-2.76-.83-4.14-.83-3.03,0-5.1,1.65-5.1,4,0,.83.28,1.65.83,2.34.55.69,2.07,1.38,2.07,1.38l2.21.83c1.24.41,1.65.97,1.65,1.65,0,.97-.83,1.52-2.21,1.52-1.24,0-2.34-.41-3.45-.83-.28-.14-.55,0-.69.28l-.69,1.86s-.04-.02.41.2c1.51.75,2.9.97,4.41.97h0Z"/>
  <path class="cls-1" d="M79.76,31.63c7.37,0,12.28-3.99,12.28-9.83,0-1.84-.61-3.69-1.54-4.91-.92-1.54-2.46-2.46-4.3-3.07l-5.83-2.15c-2.15-.92-3.07-1.84-3.07-3.38s1.54-2.76,3.69-2.76c2.46,0,4.7.26,7.06,1.54,1.08.58,1.54-.31,1.54-.31l1.61-4.43s-.38-.18-1-.48c-2.76-1.23-6.14-1.84-9.21-1.84-6.76,0-11.36,3.69-11.36,8.91,0,1.84.61,3.69,1.84,5.22,1.23,1.54,4.61,3.07,4.61,3.07l4.91,1.84c2.76.92,3.69,2.15,3.69,3.69,0,2.15-1.84,3.38-4.91,3.38-2.76,0-5.22-.92-7.68-1.84-.61-.31-1.23,0-1.54.61l-1.52,4.15s-.1-.05.91.46c3.36,1.68,6.45,2.15,9.83,2.15h0Z"/>
</svg>