<svg width="210" height="32" viewBox="0 0 210 32" fill="none" xmlns="http://www.w3.org/2000/svg">
<path d="M17.6571 0.528728V12.3857H8.25483V0.528728H0V31.4709H8.25483V19.4821H17.6571V31.4709H25.9119V0.528728H17.6571Z" fill="black"/>
<path d="M39.7282 32C46.9237 32 51.2496 28.3415 51.2496 22.259C51.2496 17.9831 49.3074 15.3828 44.584 13.3991L40.3902 11.636C38.3599 10.7545 37.7419 10.1375 37.7419 8.99175C37.7419 7.62509 39.1103 6.69957 41.229 6.69957C43.4316 6.69957 45.3605 7.42127 46.652 7.90447C47.3019 8.14763 47.7904 8.3304 48.0711 8.3304C48.557 8.3304 48.8219 8.1102 48.9984 7.66942L50.8522 2.38012C47.5857 0.749284 44.4516 0 41.0525 0C34.166 0 29.6636 3.65811 29.6636 9.07969C29.6636 13.3112 31.5618 16.0881 35.8437 17.9831L40.7876 20.187C42.4209 20.8923 43.0832 21.6416 43.0832 22.7437C43.0832 24.4185 41.847 25.2561 39.4193 25.2561C36.7669 25.2561 34.3732 24.417 32.9305 23.9112C32.3081 23.6931 31.8628 23.537 31.6499 23.537C31.1644 23.537 30.767 23.8455 30.6346 24.2863L29.1337 29.7961C33.1507 31.3387 36.3292 32 39.7282 32Z" fill="black"/>
<path d="M55.3547 31.4709H75.2189V25.5206C75.2189 24.727 74.8659 24.3746 74.0712 24.3746H63.6091V0.528728H55.3547V31.4709Z" fill="black"/>
<path d="M89.7856 32C98.3935 32 102.675 27.504 102.675 18.4682V0.528728H94.4209V17.719C94.4209 22.7877 93.1406 24.727 89.7857 24.727C86.4307 24.727 85.1507 22.7877 85.1507 17.719V0.528728H76.8959V18.4682C76.8959 27.504 81.1778 32 89.7856 32Z" fill="black"/>
<path d="M111.093 31.4709H118.329C118.632 31.4709 118.833 31.3501 118.833 30.988V29.7604C118.833 29.4583 118.672 29.2771 118.329 29.2771H113.169V18.0668C113.169 17.6643 113.028 17.5234 112.645 17.5234H111.013C110.69 17.5234 110.529 17.7047 110.529 18.0468V30.9075C110.529 31.3501 110.73 31.4709 111.093 31.4709Z" fill="black"/>
<path d="M123.671 31.7126C124.799 31.7126 125.928 31.2697 126.916 30.4646L126.936 31.0684C126.956 31.3501 127.097 31.4709 127.419 31.4709H128.77C129.133 31.4709 129.274 31.31 129.274 30.9476V22.0316C129.274 21.7099 129.113 21.569 128.75 21.569H127.299C126.956 21.569 126.795 21.7099 126.795 22.0316V28.5728C126.089 29.1766 125.122 29.5992 124.416 29.5992C123.368 29.5992 122.904 29.0157 122.904 27.6269V22.0316C122.904 21.7099 122.763 21.569 122.401 21.569H120.969C120.607 21.569 120.425 21.7299 120.425 22.0316V28.0495C120.425 30.4446 121.534 31.7126 123.671 31.7126Z" fill="black"/>
<path d="M138.364 29.6596H134.011L138.445 23.2392C138.606 23.0179 138.647 22.8166 138.647 22.5753V21.9916C138.647 21.7703 138.566 21.569 138.183 21.569H131.713C131.451 21.569 131.33 21.7299 131.33 21.9916V22.857C131.33 23.2796 131.41 23.3804 131.793 23.3804H135.522L131.169 29.7804C130.987 30.0421 130.967 30.1829 130.967 30.4646V30.988C130.967 31.2697 131.088 31.4709 131.451 31.4709H138.385C138.627 31.4709 138.768 31.3301 138.768 31.0884V30.0017C138.768 29.74 138.606 29.6596 138.364 29.6596Z" fill="black"/>
<path fill-rule="evenodd" clip-rule="evenodd" d="M144.673 31.7126C145.903 31.7126 147.233 31.4709 148.12 31.0684C148.402 30.9276 148.483 30.7667 148.402 30.4646L148.12 29.4183C148.06 29.1766 147.898 29.1162 147.596 29.237C146.75 29.5791 145.963 29.74 145.097 29.74C143.504 29.74 142.335 28.6936 142.174 27.0836H148.161C148.685 27.0836 148.826 26.9627 148.826 26.4798V26.1777C148.826 23.1791 147.233 21.3274 144.633 21.3274C141.61 21.3274 139.574 23.4004 139.574 26.4798C139.574 29.72 141.509 31.7126 144.673 31.7126ZM142.214 25.4734C142.396 24.1047 143.303 23.2192 144.492 23.2192C145.601 23.2192 146.346 24.0242 146.387 25.2518V25.4734H142.214Z" fill="black"/>
<path d="M151.224 31.4709H152.716C153.038 31.4709 153.2 31.31 153.2 30.9679V24.4872C153.683 23.9034 154.449 23.5212 155.155 23.5212C155.288 23.5212 155.436 23.535 155.609 23.5511L155.719 23.5613C155.961 23.6017 156.082 23.5212 156.122 23.2596L156.304 21.8103C156.324 21.6495 156.304 21.5487 156.223 21.4682C156.143 21.3878 155.86 21.3274 155.558 21.3274C154.59 21.3274 153.844 21.7499 153.079 22.7362L153.059 22.0116C153.059 21.6895 152.897 21.569 152.555 21.569H151.245C150.881 21.569 150.72 21.7099 150.72 22.092V30.9679C150.72 31.3101 150.881 31.4709 151.224 31.4709Z" fill="black"/>
<path d="M158.198 31.4709H159.69C160.052 31.4709 160.194 31.31 160.194 30.9679V24.4468C160.879 23.8634 161.867 23.4405 162.592 23.4405C163.661 23.4405 164.144 24.0442 164.144 25.393V30.9476C164.144 31.3101 164.305 31.4709 164.648 31.4709H166.14C166.483 31.4709 166.624 31.3101 166.624 30.9476V24.9701C166.624 22.5753 165.515 21.3274 163.378 21.3274C162.229 21.3274 161.04 21.7703 160.073 22.5753L160.052 21.9916C160.032 21.6895 159.871 21.569 159.548 21.569H158.218C157.876 21.569 157.714 21.7299 157.714 22.072V30.988C157.714 31.2897 157.896 31.4709 158.198 31.4709Z" fill="black"/>
<path d="M112.665 14.4762H111.093C110.71 14.4762 110.529 14.3354 110.529 13.9733V1.03206C110.529 0.669585 110.771 0.528729 111.093 0.528729H112.665C112.988 0.528729 113.169 0.649559 113.169 1.03206V6.16407H118.894V1.03206C118.894 0.669585 119.095 0.528729 119.438 0.528729H121.05C121.373 0.528729 121.534 0.649559 121.534 1.03206V13.9733C121.534 14.3354 121.393 14.4762 121.05 14.4762H119.438C119.055 14.4762 118.894 14.3354 118.894 13.9733V8.33792H113.169V13.9733C113.169 14.3354 113.008 14.4762 112.665 14.4762Z" fill="black"/>
<path fill-rule="evenodd" clip-rule="evenodd" d="M133.286 9.5051C133.286 12.6449 131.31 14.7179 128.307 14.7179C125.243 14.7179 123.429 12.7657 123.429 9.48508C123.429 6.36534 125.404 4.33269 128.428 4.33269C131.492 4.33269 133.286 6.24451 133.286 9.5051ZM125.989 9.44468C125.989 11.5982 126.815 12.7857 128.327 12.7857C129.839 12.7857 130.725 11.5781 130.725 9.5051C130.725 7.41204 129.899 6.26488 128.408 6.26488C126.876 6.26488 125.989 7.43206 125.989 9.44468Z" fill="black"/>
<path d="M142.638 14.1141C141.71 14.5367 140.824 14.7179 139.675 14.7179C136.591 14.7179 134.797 12.8261 134.797 9.60591C134.797 6.38571 136.752 4.33269 139.856 4.33269C140.824 4.33269 141.791 4.53396 142.597 4.89609C142.819 4.9969 142.859 5.11772 142.799 5.43945L142.537 6.52656C142.476 6.78824 142.315 6.8483 142.073 6.70744C141.509 6.42575 140.844 6.26488 140.118 6.26488C138.385 6.26488 137.357 7.45208 137.357 9.48508C137.357 11.5781 138.344 12.8057 140.017 12.8057C140.783 12.8057 141.327 12.6849 142.154 12.3428C142.396 12.2624 142.537 12.3228 142.597 12.504L142.879 13.5103C142.98 13.8524 142.94 13.9733 142.638 14.1141Z" fill="black"/>
<path d="M146.709 14.4762H145.137C144.855 14.4762 144.673 14.3354 144.673 13.9933V0.991689C144.673 0.649581 144.895 0.528745 145.218 0.528745H146.649C146.971 0.528745 147.153 0.629562 147.153 0.991689V5.49989C148.019 4.77563 149.309 4.3327 150.378 4.3327C152.676 4.3327 153.623 5.76156 153.623 7.97544V13.9733C153.623 14.3354 153.462 14.4762 153.099 14.4762H151.668C151.305 14.4762 151.144 14.3354 151.144 13.9733V8.39834C151.144 7.29121 150.841 6.44577 149.612 6.44577C148.805 6.44577 147.798 6.90872 147.153 7.45208V13.9733C147.153 14.3154 146.991 14.4762 146.709 14.4762Z" fill="black"/>
<path d="M162.774 11.5581C162.774 13.4699 161.181 14.7179 158.763 14.7179C157.715 14.7179 156.606 14.4762 155.659 14.0133C155.437 13.9129 155.356 13.7516 155.437 13.5304L155.8 12.4032C155.88 12.1619 156.042 12.1015 156.283 12.202C157.372 12.6649 158.077 12.8461 158.823 12.8461C159.791 12.8461 160.395 12.4236 160.395 11.7594C160.395 11.216 160.073 10.8939 159.166 10.5518L157.553 9.94803C156.243 9.46471 155.477 8.4584 155.477 7.19077C155.477 5.49988 156.989 4.31269 159.146 4.31269C160.173 4.31269 161.161 4.51395 162.109 4.91647C162.371 5.03693 162.411 5.13774 162.33 5.41944L161.968 6.50619C161.887 6.74785 161.705 6.80827 161.484 6.68743C160.98 6.38571 160.113 6.20447 159.267 6.20447C158.521 6.20447 158.017 6.58698 158.017 7.15037C158.017 7.63331 158.279 7.91501 158.985 8.19708L160.839 8.9417C162.068 9.42466 162.774 10.3906 162.774 11.5581Z" fill="black"/>
<path d="M171.884 14.1141C170.957 14.5367 170.07 14.7179 168.921 14.7179C165.837 14.7179 164.044 12.8261 164.044 9.60591C164.044 6.38571 165.999 4.33269 169.103 4.33269C170.07 4.33269 171.038 4.53396 171.844 4.89609C172.066 4.9969 172.106 5.11772 172.046 5.43945L171.784 6.52656C171.723 6.78824 171.562 6.8483 171.32 6.70744C170.755 6.42575 170.091 6.26488 169.365 6.26488C167.631 6.26488 166.604 7.45208 166.604 9.48508C166.604 11.5781 167.591 12.8057 169.264 12.8057C170.03 12.8057 170.574 12.6849 171.401 12.3428C171.643 12.2624 171.784 12.3228 171.844 12.504L172.126 13.5103C172.227 13.8524 172.187 13.9733 171.884 14.1141Z" fill="black"/>
<path d="M175.956 14.4762H174.384C174.101 14.4762 173.92 14.3354 173.92 13.9933V0.991689C173.92 0.649581 174.142 0.528745 174.465 0.528745H175.896C176.218 0.528745 176.399 0.629562 176.399 0.991689V5.49989C177.266 4.77563 178.556 4.3327 179.624 4.3327C181.922 4.3327 182.87 5.76156 182.87 7.97544V13.9733C182.87 14.3354 182.708 14.4762 182.346 14.4762H180.914C180.552 14.4762 180.39 14.3354 180.39 13.9733V8.39834C180.39 7.29121 180.088 6.44577 178.858 6.44577C178.052 6.44577 177.044 6.90872 176.399 7.45208V13.9733C176.399 14.3154 176.238 14.4762 175.956 14.4762Z" fill="black"/>
<path d="M191.577 13.4699C190.589 14.275 189.461 14.7179 188.332 14.7179C186.195 14.7179 185.087 13.4499 185.087 11.0548V5.03693C185.087 4.73521 185.268 4.57435 185.631 4.57435H187.062C187.425 4.57435 187.566 4.71519 187.566 5.03693V10.6322C187.566 12.0211 188.029 12.6045 189.078 12.6045C189.783 12.6045 190.751 12.1819 191.456 11.5781V5.03693C191.456 4.71519 191.618 4.57435 191.96 4.57435H193.411C193.774 4.57435 193.935 4.71519 193.935 5.03693V13.9529C193.935 14.3154 193.794 14.4762 193.432 14.4762H192.081C191.759 14.4762 191.618 14.3554 191.597 14.0737L191.577 13.4699Z" fill="black"/>
<path d="M198.39 14.4762H196.818C196.536 14.4762 196.354 14.3354 196.354 13.9933V0.991674C196.354 0.649566 196.576 0.528729 196.898 0.528729H198.329C198.652 0.528729 198.833 0.629547 198.833 0.991674V13.9733C198.833 14.3154 198.672 14.4762 198.39 14.4762Z" fill="black"/>
<path fill-rule="evenodd" clip-rule="evenodd" d="M209.294 14.0737C208.408 14.4762 207.077 14.7179 205.848 14.7179C202.683 14.7179 200.748 12.7253 200.748 9.4851C200.748 6.40574 202.784 4.3327 205.807 4.3327C208.408 4.3327 210 6.18446 210 9.18302V9.48509C210 9.96805 209.859 10.0889 209.335 10.0889H203.348C203.509 11.699 204.678 12.7453 206.271 12.7453C207.138 12.7453 207.924 12.5845 208.77 12.2424C209.073 12.1215 209.234 12.1819 209.294 12.4236L209.576 13.4699C209.657 13.772 209.576 13.9329 209.294 14.0737ZM205.666 6.22449C204.477 6.22449 203.57 7.10997 203.388 8.47877H207.561V8.25713C207.521 7.02954 206.775 6.22449 205.666 6.22449Z" fill="black"/>
</svg>
